<svg width="300" height="450" viewBox="0 0 300 450" fill="none" xmlns="http://www.w3.org/2000/svg">
<rect width="300" height="450" rx="8" fill="#333333"/>
<path fill-rule="evenodd" clip-rule="evenodd" d="M152.886 232.861C153.987 233.282 155.178 233.492 156.478 233.492L156.488 233.502C157.769 233.502 158.95 233.292 160.04 232.881C161.131 232.471 162.081 231.88 162.892 231.109C163.712 230.338 164.332 229.437 164.783 228.396C165.233 227.355 165.453 226.233 165.453 225.002C165.453 223.771 165.233 222.629 164.783 221.598C164.332 220.557 163.702 219.666 162.892 218.895C162.081 218.124 161.131 217.533 160.04 217.123C158.95 216.712 157.759 216.502 156.458 216.502C155.158 216.502 153.967 216.712 152.876 217.133C151.786 217.553 150.835 218.144 150.025 218.915C149.204 219.676 148.584 220.577 148.134 221.598C147.684 222.629 147.463 223.771 147.463 224.992C147.463 226.213 147.684 227.345 148.134 228.376C148.584 229.407 149.214 230.308 150.025 231.079C150.835 231.84 151.796 232.441 152.886 232.861ZM158.489 229.888C157.869 230.148 157.189 230.278 156.458 230.278C155.728 230.278 155.047 230.148 154.417 229.888C153.787 229.627 153.247 229.267 152.786 228.786C152.326 228.316 151.966 227.755 151.706 227.124C151.446 226.494 151.316 225.783 151.316 225.002C151.316 224.221 151.446 223.51 151.706 222.879C151.966 222.249 152.326 221.698 152.786 221.218C153.247 220.747 153.797 220.377 154.417 220.116C155.037 219.856 155.718 219.726 156.458 219.726C157.199 219.726 157.869 219.856 158.489 220.116C159.11 220.377 159.65 220.737 160.12 221.218C160.59 221.688 160.951 222.249 161.211 222.879C161.471 223.51 161.601 224.221 161.601 225.002C161.601 225.783 161.471 226.494 161.211 227.124C160.951 227.755 160.59 228.306 160.12 228.786C159.65 229.267 159.11 229.627 158.489 229.888ZM102.92 216.782L98.4175 233.212H94.5555L91.9941 223.55L89.3827 233.212H85.5007L80.9883 216.782H84.7803L87.3817 227.325L90.1331 216.782H94.0452L96.6866 227.415L99.398 216.782H102.92ZM117.257 230.158V233.212H104.941V216.782H116.947V219.836H108.723V223.38H116.347V226.364H108.723V230.158H117.257ZM130.605 224.812C131.335 225.152 131.905 225.653 132.325 226.314C132.746 226.974 132.956 227.775 132.956 228.727C132.956 230.138 132.446 231.239 131.415 232.03C130.384 232.821 128.874 233.212 126.873 233.212H119.018V216.782H126.442C128.353 216.782 129.784 217.173 130.755 217.954C131.715 218.735 132.195 219.776 132.195 221.057C132.195 221.918 131.995 222.659 131.605 223.3C131.255 223.871 130.775 224.331 130.184 224.652C130.324 224.692 130.464 224.752 130.605 224.812ZM126.012 219.646H122.51V223.52H126.012C126.863 223.52 127.513 223.36 127.973 223.04C128.423 222.719 128.653 222.219 128.653 221.568C128.653 220.917 128.423 220.427 127.973 220.116C127.513 219.806 126.863 219.646 126.012 219.646ZM126.632 230.348C127.533 230.348 128.223 230.188 128.704 229.858C129.174 229.527 129.414 229.047 129.414 228.336C129.414 227.625 129.174 227.115 128.704 226.784C128.223 226.454 127.533 226.294 126.632 226.294H122.51V230.348H126.632ZM138.209 233.212V219.886H132.956V216.782H147.263V219.876H142.011V233.212H138.209ZM175.378 233.492C174.078 233.492 172.887 233.282 171.786 232.861C170.696 232.441 169.735 231.84 168.925 231.079C168.114 230.318 167.484 229.407 167.034 228.376C166.584 227.345 166.363 226.213 166.363 224.992C166.363 223.771 166.584 222.629 167.034 221.598C167.484 220.577 168.104 219.676 168.925 218.915C169.745 218.154 170.686 217.553 171.776 217.133C172.857 216.712 174.048 216.502 175.348 216.502C176.649 216.502 177.84 216.712 178.93 217.123C180.021 217.533 180.971 218.124 181.782 218.895C182.592 219.666 183.222 220.557 183.673 221.598C184.123 222.629 184.343 223.771 184.343 225.002C184.343 226.233 184.123 227.355 183.673 228.396C183.222 229.437 182.592 230.338 181.782 231.109C180.971 231.88 180.021 232.471 178.93 232.881C177.84 233.292 176.659 233.502 175.378 233.502V233.492ZM175.358 230.278C176.089 230.278 176.769 230.148 177.389 229.888C178.01 229.627 178.55 229.267 179.02 228.786C179.49 228.306 179.851 227.755 180.111 227.124C180.371 226.494 180.501 225.783 180.501 225.002C180.501 224.221 180.371 223.51 180.111 222.879C179.851 222.249 179.49 221.688 179.02 221.218C178.55 220.737 178.01 220.377 177.389 220.116C176.769 219.856 176.099 219.726 175.358 219.726C174.618 219.726 173.947 219.856 173.317 220.116C172.697 220.377 172.147 220.747 171.686 221.218C171.226 221.698 170.866 222.249 170.606 222.879C170.346 223.51 170.215 224.221 170.215 225.002C170.215 225.783 170.346 226.494 170.606 227.124C170.866 227.755 171.226 228.316 171.686 228.786C172.147 229.267 172.687 229.627 173.317 229.888C173.947 230.148 174.618 230.278 175.358 230.278ZM201.082 233.212V216.782H197.33V226.754L189.166 216.782H186.024V233.212H189.776V223.25L197.94 233.212H201.082ZM203.523 233.212V216.782H207.345V230.118H215.53V233.212H203.523ZM217.08 216.782V233.212H220.903V216.782H217.08ZM238.822 233.212H234.359L229.087 226.754L226.906 229.037V233.212H223.124V216.782H226.906V224.451L234.179 216.782H238.402L231.608 224.121L238.822 233.212ZM243.624 223.38V219.836H250.988V216.782H239.842V233.212H250.988V230.158H243.624V226.364H250.988V223.38H243.624Z" fill="#808080"/>
<path d="M74.43 221.639L69.6353 231.443C69.3456 232.033 68.7662 232.41 68.1169 232.43H68.067C67.4476 232.43 66.8683 232.094 66.5486 231.545L64.4909 227.914L66.5087 224.344L67.9571 226.897L71.2935 220.052C71.723 219.177 72.7719 218.811 73.6409 219.248C74.5 219.696 74.8596 220.764 74.43 221.639ZM66.5886 216.838C65.6396 216.278 64.411 216.614 63.8616 217.58L63.2722 218.628L62.563 217.387C62.0835 216.533 61.0047 216.248 60.1756 216.736C59.3365 217.224 59.0468 218.313 59.5363 219.167L61.2544 222.198L58.3076 227.395L52.7437 217.58C52.1943 216.614 50.9656 216.278 50.0166 216.838C49.0577 217.397 48.728 218.648 49.2774 219.615L56.5695 232.481C56.9291 233.112 57.5884 233.498 58.3076 233.498C59.0268 233.498 59.6761 233.112 60.0357 232.481L62.8726 227.477L63.5619 226.266L65.5797 222.707L65.7895 222.34L67.3278 219.615C67.8772 218.648 67.5475 217.397 66.5886 216.838Z" fill="#808080"/>
</svg>
