<svg width="60" height="60" viewBox="0 0 60 60" fill="none" xmlns="http://www.w3.org/2000/svg">
<rect width="60" height="60" rx="4" fill="#333333"/>
<path d="M42.6185 26.6405L37.8237 36.4454C37.5341 37.0354 36.9547 37.4117 36.3054 37.432H36.2554C35.6361 37.432 35.0568 37.0964 34.7371 36.5472L32.6793 32.9161L34.6971 29.3461L36.1456 31.899L39.4819 25.0539C39.9115 24.1792 40.9603 23.813 41.8294 24.2504C42.6884 24.6979 43.0481 25.7658 42.6185 26.6405ZM34.7771 21.8398C33.8281 21.2804 32.5994 21.616 32.05 22.5823L31.4607 23.6299L30.7514 22.389C30.272 21.5347 29.1931 21.2499 28.364 21.7381C27.525 22.2263 27.2353 23.3146 27.7247 24.169L29.4429 27.2L26.4961 32.3974L20.9321 22.5823C20.3827 21.616 19.1541 21.2804 18.2051 21.8398C17.2461 22.3992 16.9165 23.6503 17.4659 24.6165L24.758 37.4829C25.1176 38.1135 25.7769 38.5 26.4961 38.5C27.2153 38.5 27.8646 38.1135 28.2242 37.4829L31.0611 32.4787L31.7504 31.2684L33.7682 27.7085L33.9779 27.3424L35.5163 24.6165C36.0657 23.6503 35.736 22.3992 34.7771 21.8398Z" fill="#808080"/>
</svg>
